<svg width="20" height="20" viewBox="0 0 20 20" fill="none" xmlns="http://www.w3.org/2000/svg">
<path d="M18.7491 9.99994L19.8531 8.09194C20.1291 7.61294 19.9651 7.00194 19.4881 6.72594L17.5781 5.62194V3.42194C17.5781 2.86894 17.1311 2.42194 16.5781 2.42194H14.3791L13.2761 0.51294C13.1431 0.28394 12.9241 0.11594 12.6691 0.0469399C12.4131 -0.0230601 12.1401 0.0139401 11.9101 0.14694L10.0001 1.25094L8.09007 0.14594C7.61107 -0.13106 7.00007 0.0339401 6.72407 0.51194L5.62007 2.42194H3.42107C2.86807 2.42194 2.42107 2.86894 2.42107 3.42194V5.62094L0.511069 6.72494C0.281069 6.85794 0.114069 7.07694 0.0460695 7.33294C-0.0219306 7.58994 0.0140694 7.86194 0.146069 8.09194L1.25007 9.99994L0.146069 11.9079C0.0130694 12.1379 -0.0229305 12.4109 0.0450695 12.6679C0.11307 12.9239 0.280069 13.1429 0.510069 13.2749L2.42007 14.3789V16.5779C2.42007 17.1309 2.86707 17.5779 3.42007 17.5779H5.62007L6.72407 19.4879C6.85707 19.7169 7.07607 19.8839 7.33207 19.9539C7.41707 19.9759 7.50307 19.9879 7.59007 19.9879C7.76407 19.9879 7.93707 19.9419 8.09107 19.8529L9.99907 18.7489L11.9091 19.8529C12.1381 19.9859 12.4121 20.0209 12.6681 19.9529C12.9241 19.8849 13.1431 19.7179 13.2751 19.4879L14.3781 17.5779H16.5771C17.1301 17.5779 17.5771 17.1309 17.5771 16.5779V14.3789L19.4871 13.2749C19.9651 12.9979 20.1291 12.3859 19.8521 11.9079L18.7491 9.99994ZM7.49907 4.98994C8.32707 4.98994 8.99907 5.66194 8.99907 6.48994C8.99907 7.31794 8.32707 7.98994 7.49907 7.98994C6.67107 7.98994 5.99907 7.31794 5.99907 6.48994C5.99907 5.66194 6.67107 4.98994 7.49907 4.98994ZM7.79907 14.5899L6.19907 13.3909L12.1991 5.39094L13.7991 6.58994L7.79907 14.5899ZM12.4991 14.9899C11.6711 14.9899 10.9991 14.3179 10.9991 13.4899C10.9991 12.6619 11.6711 11.9899 12.4991 11.9899C13.3271 11.9899 13.9991 12.6619 13.9991 13.4899C13.9991 14.3179 13.3271 14.9899 12.4991 14.9899Z" fill="#121715"/>
</svg>
