<svg width="20" height="20" viewBox="0 0 20 20" fill="none" xmlns="http://www.w3.org/2000/svg">
<path d="M17.1877 6.49945L16.1439 0.83252H3.85593L2.81213 6.49945H0V7.69945H0.838L1.848 16.5615C1.94404 17.2816 2.29791 17.9426 2.84403 18.4217C3.39014 18.9009 4.09146 19.1659 4.818 19.1675H15.182C15.9084 19.1656 16.6096 18.9005 17.1556 18.4214C17.7017 17.9422 18.0557 17.2815 18.152 16.5615L19.162 7.69945H20V6.49945H17.1877ZM5.578 14.8675L5.178 10.7995H6.384L6.784 14.8675H5.578ZM10.616 14.8675H9.416V10.7995H10.616V14.8675ZM14.416 14.8675H13.212L13.612 10.7995H14.816L14.416 14.8675ZM4.04011 6.49946L4.82592 2.03253H15.1739L15.9597 6.49946H4.04011Z" fill="#121715" fill-opacity="0.25"/>
</svg>
