<svg width="24" height="24" viewBox="0 0 24 24" fill="none" xmlns="http://www.w3.org/2000/svg">
<path d="M9.8476 17.2002C9.50541 17.4248 9.19261 17.6913 8.91644 17.9934C7.70356 19.0942 6.50186 20.2072 5.29287 21.3123C5.25585 21.3764 5.20138 21.4286 5.1358 21.4629C5.07023 21.4973 4.99625 21.5123 4.92249 21.5062L10.538 1.88538C11.3732 3.45606 12.1659 4.94673 12.9585 6.43737C13.7928 8.04214 14.6119 9.65516 15.4723 11.2458C15.5267 11.3115 15.5664 11.388 15.5888 11.4703C15.6112 11.5526 15.6157 11.6387 15.602 11.7229C15.5883 11.807 15.5568 11.8873 15.5095 11.9583C15.4622 12.0292 15.4003 12.0893 15.3279 12.1343C13.5086 13.7753 11.7146 15.4443 9.91196 17.1037C9.90047 17.1056 9.88947 17.1099 9.87963 17.1161C9.86979 17.1224 9.8613 17.1305 9.85466 17.1401C9.84802 17.1497 9.84337 17.1605 9.84098 17.1719C9.83859 17.1833 9.83851 17.1951 9.84075 17.2065L9.8476 17.2002Z" fill="#179F57"/>
<path opacity="0.5" d="M9.91196 17.1037C11.7146 15.4443 13.5086 13.7753 15.3279 12.1343C15.4003 12.0893 15.4622 12.0293 15.5095 11.9583C15.5568 11.8873 15.5883 11.8071 15.602 11.7229C15.6156 11.6387 15.6112 11.5526 15.5888 11.4703C15.5664 11.388 15.5267 11.3115 15.4723 11.2458C14.6119 9.65519 13.7928 8.04217 12.9585 6.4374C13.3031 5.26624 13.6477 4.09507 13.9923 2.92387C14.0259 2.80972 14.0594 2.69556 14.0936 2.57922C14.1445 2.59201 14.1901 2.62019 14.2243 2.65989C14.2586 2.6996 14.2797 2.74891 14.2849 2.80108C15.9025 5.88554 17.5195 8.97031 19.1359 12.0554C19.1689 12.0935 19.1934 12.1381 19.2079 12.1864C19.2224 12.2346 19.2265 12.2854 19.22 12.3353C19.2135 12.3853 19.1965 12.4333 19.1702 12.4762C19.1438 12.5191 19.1087 12.556 19.0671 12.5844C15.6148 15.7369 12.1675 18.8948 8.72511 22.0581C8.69529 22.0866 8.65988 22.1085 8.62112 22.1225C8.58237 22.1366 8.54112 22.1424 8.5 22.1397C8.61502 21.7309 8.72855 21.3217 8.84534 20.9134C9.16705 19.7887 9.49222 18.6651 9.80922 17.5391C9.84128 17.4894 9.86143 17.4329 9.86809 17.3741C9.87474 17.3154 9.86774 17.2558 9.84761 17.2002L9.84074 17.2066C9.93418 17.2206 9.90598 17.1503 9.91196 17.1037Z" fill="#179F57"/>
<path d="M9.91194 17.104C9.90594 17.1506 9.93417 17.2208 9.84073 17.2068C9.8385 17.1954 9.83858 17.1836 9.84097 17.1722C9.84336 17.1608 9.84801 17.15 9.85465 17.1404C9.86128 17.1308 9.86977 17.1227 9.87961 17.1164C9.88945 17.1102 9.90045 17.1059 9.91194 17.104Z" fill="#FEFEFE"/>
</svg>
