<svg width="20" height="20" viewBox="0 0 20 20" fill="none" xmlns="http://www.w3.org/2000/svg">
<path d="M1.66669 16.6666H18.3334V18.3333H1.66669V16.6666ZM3.33335 9.99996H5.00002V15.8333H3.33335V9.99996ZM7.50002 9.99996H9.16669V15.8333H7.50002V9.99996ZM10.8334 9.99996H12.5V15.8333H10.8334V9.99996ZM15 9.99996H16.6667V15.8333H15V9.99996ZM1.66669 5.83329L10 1.66663L18.3334 5.83329V9.16663H1.66669V5.83329ZM10 6.66663C10.4603 6.66663 10.8334 6.29353 10.8334 5.83329C10.8334 5.37306 10.4603 4.99996 10 4.99996C9.53978 4.99996 9.16669 5.37306 9.16669 5.83329C9.16669 6.29353 9.53978 6.66663 10 6.66663Z" fill="#179F57"/>
</svg>
