<svg width="16" height="20" viewBox="0 0 16 20" fill="none" xmlns="http://www.w3.org/2000/svg">
<path d="M14.34 0.5H1.65998C1.07998 0.5 0.599976 0.98 0.599976 1.56V18.44C0.599976 19.02 1.07998 19.5 1.65998 19.5H6.83998V15.28C6.83998 15.1 6.97998 14.96 7.15998 14.96H8.83998C9.01998 14.96 9.15998 15.1 9.15998 15.28V19.5H14.34C14.92 19.5 15.4 19.02 15.4 18.44V1.56C15.38 0.98 14.92 0.5 14.34 0.5ZM5.15998 16.96C5.15998 17.14 5.01998 17.28 4.83998 17.28H3.15998C2.97998 17.28 2.83998 17.14 2.83998 16.96V15.28C2.83998 15.1 2.97998 14.96 3.15998 14.96H4.83998C5.01998 14.96 5.15998 15.1 5.15998 15.28V16.96ZM5.15998 12.96C5.15998 13.14 5.01998 13.28 4.83998 13.28H3.15998C2.97998 13.28 2.83998 13.14 2.83998 12.96V11.28C2.83998 11.1 2.97998 10.96 3.15998 10.96H4.83998C5.01998 10.96 5.15998 11.1 5.15998 11.28V12.96ZM5.15998 8.94C5.15998 9.12 5.01998 9.26 4.83998 9.26H3.15998C2.97998 9.26 2.83998 9.12 2.83998 8.94V7.26C2.83998 7.08 2.97998 6.94 3.15998 6.94H4.83998C5.01998 6.94 5.15998 7.08 5.15998 7.26V8.94ZM5.15998 4.94C5.15998 5.12 5.01998 5.26 4.83998 5.26H3.15998C2.97998 5.26 2.83998 5.12 2.83998 4.94V3.26C2.83998 3.08 2.97998 2.94 3.15998 2.94H4.83998C5.01998 2.94 5.15998 3.08 5.15998 3.26V4.94ZM9.15998 12.96C9.15998 13.14 9.01998 13.28 8.83998 13.28H7.15998C6.97998 13.28 6.83998 13.14 6.83998 12.96V11.28C6.83998 11.1 6.97998 10.96 7.15998 10.96H8.83998C9.01998 10.96 9.15998 11.1 9.15998 11.28V12.96ZM9.15998 8.94C9.15998 9.12 9.01998 9.26 8.83998 9.26H7.15998C6.97998 9.26 6.83998 9.12 6.83998 8.94V7.26C6.83998 7.08 6.97998 6.94 7.15998 6.94H8.83998C9.01998 6.94 9.15998 7.08 9.15998 7.26V8.94ZM9.15998 4.94C9.15998 5.12 9.01998 5.26 8.83998 5.26H7.15998C6.97998 5.26 6.83998 5.12 6.83998 4.94V3.26C6.83998 3.08 6.97998 2.94 7.15998 2.94H8.83998C9.01998 2.94 9.15998 3.08 9.15998 3.26V4.94ZM13.18 16.96C13.18 17.14 13.04 17.28 12.86 17.28H11.18C11 17.28 10.86 17.14 10.86 16.96V15.28C10.86 15.1 11 14.96 11.18 14.96H12.86C13.04 14.96 13.18 15.1 13.18 15.28V16.96ZM13.18 12.96C13.18 13.14 13.04 13.28 12.86 13.28H11.18C11 13.28 10.86 13.14 10.86 12.96V11.28C10.86 11.1 11 10.96 11.18 10.96H12.86C13.04 10.96 13.18 11.1 13.18 11.28V12.96ZM13.18 8.94C13.18 9.12 13.04 9.26 12.86 9.26H11.18C11 9.26 10.86 9.12 10.86 8.94V7.26C10.86 7.08 11 6.94 11.18 6.94H12.86C13.04 6.94 13.18 7.08 13.18 7.26V8.94ZM13.18 4.94C13.18 5.12 13.04 5.26 12.86 5.26H11.18C11 5.26 10.86 5.12 10.86 4.94V3.26C10.86 3.08 11 2.94 11.18 2.94H12.86C13.04 2.94 13.18 3.08 13.18 3.26V4.94Z" fill="#179F57"/>
</svg>
