<svg width="16" height="20" viewBox="0 0 16 20" fill="none" xmlns="http://www.w3.org/2000/svg">
<path d="M14.3401 0.5H1.6601C1.0801 0.5 0.600098 0.98 0.600098 1.56V18.44C0.600098 19.02 1.0801 19.5 1.6601 19.5H6.8401V15.28C6.8401 15.1 6.9801 14.96 7.1601 14.96H8.8401C9.0201 14.96 9.1601 15.1 9.1601 15.28V19.5H14.3401C14.9201 19.5 15.4001 19.02 15.4001 18.44V1.56C15.3801 0.98 14.9201 0.5 14.3401 0.5ZM5.1601 16.96C5.1601 17.14 5.0201 17.28 4.8401 17.28H3.1601C2.9801 17.28 2.8401 17.14 2.8401 16.96V15.28C2.8401 15.1 2.9801 14.96 3.1601 14.96H4.8401C5.0201 14.96 5.1601 15.1 5.1601 15.28V16.96ZM5.1601 12.96C5.1601 13.14 5.0201 13.28 4.8401 13.28H3.1601C2.9801 13.28 2.8401 13.14 2.8401 12.96V11.28C2.8401 11.1 2.9801 10.96 3.1601 10.96H4.8401C5.0201 10.96 5.1601 11.1 5.1601 11.28V12.96ZM5.1601 8.94C5.1601 9.12 5.0201 9.26 4.8401 9.26H3.1601C2.9801 9.26 2.8401 9.12 2.8401 8.94V7.26C2.8401 7.08 2.9801 6.94 3.1601 6.94H4.8401C5.0201 6.94 5.1601 7.08 5.1601 7.26V8.94ZM5.1601 4.94C5.1601 5.12 5.0201 5.26 4.8401 5.26H3.1601C2.9801 5.26 2.8401 5.12 2.8401 4.94V3.26C2.8401 3.08 2.9801 2.94 3.1601 2.94H4.8401C5.0201 2.94 5.1601 3.08 5.1601 3.26V4.94ZM9.1601 12.96C9.1601 13.14 9.0201 13.28 8.8401 13.28H7.1601C6.9801 13.28 6.8401 13.14 6.8401 12.96V11.28C6.8401 11.1 6.9801 10.96 7.1601 10.96H8.8401C9.0201 10.96 9.1601 11.1 9.1601 11.28V12.96ZM9.1601 8.94C9.1601 9.12 9.0201 9.26 8.8401 9.26H7.1601C6.9801 9.26 6.8401 9.12 6.8401 8.94V7.26C6.8401 7.08 6.9801 6.94 7.1601 6.94H8.8401C9.0201 6.94 9.1601 7.08 9.1601 7.26V8.94ZM9.1601 4.94C9.1601 5.12 9.0201 5.26 8.8401 5.26H7.1601C6.9801 5.26 6.8401 5.12 6.8401 4.94V3.26C6.8401 3.08 6.9801 2.94 7.1601 2.94H8.8401C9.0201 2.94 9.1601 3.08 9.1601 3.26V4.94ZM13.1801 16.96C13.1801 17.14 13.0401 17.28 12.8601 17.28H11.1801C11.0001 17.28 10.8601 17.14 10.8601 16.96V15.28C10.8601 15.1 11.0001 14.96 11.1801 14.96H12.8601C13.0401 14.96 13.1801 15.1 13.1801 15.28V16.96ZM13.1801 12.96C13.1801 13.14 13.0401 13.28 12.8601 13.28H11.1801C11.0001 13.28 10.8601 13.14 10.8601 12.96V11.28C10.8601 11.1 11.0001 10.96 11.1801 10.96H12.8601C13.0401 10.96 13.1801 11.1 13.1801 11.28V12.96ZM13.1801 8.94C13.1801 9.12 13.0401 9.26 12.8601 9.26H11.1801C11.0001 9.26 10.8601 9.12 10.8601 8.94V7.26C10.8601 7.08 11.0001 6.94 11.1801 6.94H12.8601C13.0401 6.94 13.1801 7.08 13.1801 7.26V8.94ZM13.1801 4.94C13.1801 5.12 13.0401 5.26 12.8601 5.26H11.1801C11.0001 5.26 10.8601 5.12 10.8601 4.94V3.26C10.8601 3.08 11.0001 2.94 11.1801 2.94H12.8601C13.0401 2.94 13.1801 3.08 13.1801 3.26V4.94Z" fill="#121715" fill-opacity="0.25"/>
</svg>
