<svg width="14" height="14" viewBox="0 0 14 14" fill="none" xmlns="http://www.w3.org/2000/svg">
<path d="M7.00004 0.333496C3.32404 0.333496 0.333374 3.32416 0.333374 7.00016C0.333374 10.6762 3.32404 13.6668 7.00004 13.6668C10.676 13.6668 13.6667 10.6762 13.6667 7.00016C13.6667 3.32416 10.676 0.333496 7.00004 0.333496ZM7.00004 12.3335C4.05937 12.3335 1.66671 9.94083 1.66671 7.00016C1.66671 4.0595 4.05937 1.66683 7.00004 1.66683C9.94071 1.66683 12.3334 4.0595 12.3334 7.00016C12.3334 9.94083 9.94071 12.3335 7.00004 12.3335Z" fill="#121715" fill-opacity="0.5"/>
<path d="M6.33337 6.33366H7.66671V10.3337H6.33337V6.33366ZM6.33337 3.66699H7.66671V5.00033H6.33337V3.66699Z" fill="#121715" fill-opacity="0.5"/>
</svg>
