<svg width="16" height="19" viewBox="0 0 16 19" fill="none" xmlns="http://www.w3.org/2000/svg">
<path d="M8 18.7736L2.69667 13.4702H2.69667C-0.23225 10.5413 -0.232217 5.79255 2.69673 2.86366C5.62568 -0.0652576 10.3744 -0.0652242 13.3033 2.86372C16.2322 5.79265 16.2322 10.5413 13.3033 13.4702L7.99998 18.7736L8 18.7736ZM12.125 12.2919C14.4029 10.0137 14.4028 6.32028 12.1246 4.04233C9.84641 1.76439 6.15295 1.76458 3.87501 4.04276C1.59723 6.32076 1.59723 10.0139 3.87501 12.2919L8.00001 16.4169L12.125 12.2919L12.125 12.2919ZM8 9.83358C7.07953 9.83358 6.33333 9.08738 6.33333 8.16691C6.33333 7.24643 7.07953 6.50024 8 6.50024C8.92048 6.50024 9.66667 7.24643 9.66667 8.16691C9.66667 9.08738 8.92048 9.83358 8 9.83358Z" fill="#179F57"/>
</svg>
