<svg width="20" height="20" viewBox="0 0 20 20" fill="none" xmlns="http://www.w3.org/2000/svg">
<path d="M18.2821 15.1126V5.33801L10.7603 9.68101L9.81787 10.2252L9.81807 20L18.2821 15.1126Z" fill="#179F57"/>
<path d="M9.55771 0L1.09351 4.8872L4.49451 6.851L12.9585 1.9638L9.55771 0Z" fill="#179F57"/>
<path d="M14.2176 2.69055L5.75317 7.57795L6.39137 7.94615L9.55777 9.77455L12.7068 7.95615L18.0218 4.88715L14.2176 2.69055Z" fill="#179F57"/>
<path d="M5.42105 10.75L5.33725 10.5602L5.25325 10.6712L5.19025 10.4874L5.07945 10.5846L5.02625 10.4004L4.91165 10.479L4.84645 10.2892L4.74685 10.3864L4.68105 10.1784L4.58665 10.3054L4.54025 10.105L4.43465 10.2378L4.36925 10.0392L4.29385 10.1592L4.25325 9.99641V7.31241L0.833452 5.33801L0.833252 15.1126L9.29725 20L9.29745 10.2252L5.48325 8.02281V10.6334L5.42105 10.75Z" fill="#179F57"/>
</svg>
