<svg width="20" height="20" viewBox="0 0 20 20" fill="none" xmlns="http://www.w3.org/2000/svg">
<path d="M18.2822 15.1125V5.33789L10.7604 9.68089L9.81799 10.2251L9.81819 19.9999L18.2822 15.1125Z" fill="#121715" fill-opacity="0.25"/>
<path d="M9.55771 0L1.09351 4.8872L4.49451 6.851L12.9585 1.9638L9.55771 0Z" fill="#121715" fill-opacity="0.25"/>
<path d="M14.2176 2.69043L5.75317 7.57783L6.39137 7.94603L9.55777 9.77443L12.7068 7.95603L18.0218 4.88703L14.2176 2.69043Z" fill="#121715" fill-opacity="0.25"/>
<path d="M5.42117 10.7499L5.33737 10.5601L5.25337 10.6711L5.19037 10.4873L5.07957 10.5845L5.02637 10.4003L4.91177 10.4789L4.84657 10.2891L4.74697 10.3863L4.68117 10.1783L4.58677 10.3053L4.54037 10.1049L4.43477 10.2377L4.36937 10.0391L4.29397 10.1591L4.25337 9.99629V7.31229L0.833574 5.33789L0.833374 15.1125L9.29737 19.9999L9.29757 10.2251L5.48337 8.02269V10.6333L5.42117 10.7499Z" fill="#121715" fill-opacity="0.25"/>
</svg>
