<svg width="16" height="16" viewBox="0 0 16 16" fill="none" xmlns="http://www.w3.org/2000/svg">
<path d="M16 12.6364C16 12.8409 15.9621 13.108 15.8864 13.4375C15.8106 13.767 15.731 14.0265 15.6477 14.2159C15.4886 14.5947 15.0265 14.9962 14.2614 15.4205C13.5492 15.8068 12.8447 16 12.1477 16C11.9432 16 11.7443 15.9868 11.5511 15.9602C11.358 15.9337 11.1402 15.8864 10.8977 15.8182C10.6553 15.75 10.4754 15.6951 10.358 15.6534C10.2405 15.6117 10.0303 15.5341 9.72727 15.4205C9.42425 15.3068 9.23864 15.2386 9.17045 15.2159C8.42803 14.9508 7.76514 14.6364 7.18181 14.2727C6.21212 13.6743 5.21023 12.858 4.17614 11.8239C3.14205 10.7898 2.32575 9.78788 1.72727 8.81819C1.36364 8.23484 1.04925 7.57197 0.784094 6.82953C0.761359 6.76134 0.693187 6.57573 0.579547 6.27272C0.465906 5.96969 0.38825 5.75945 0.346578 5.64203C0.304922 5.52461 0.25 5.34469 0.181812 5.10225C0.113641 4.85983 0.0662813 4.64203 0.0397813 4.44884C0.0132344 4.25569 0 4.05683 0 3.85227C0 3.1553 0.193188 2.45075 0.579531 1.73864C1.00378 0.973484 1.40531 0.511359 1.78409 0.352266C1.97348 0.268937 2.23295 0.189391 2.5625 0.113641C2.89203 0.037875 3.15909 0 3.36364 0C3.4697 0 3.54925 0.0113594 3.60227 0.0340937C3.73864 0.0795469 3.93939 0.367422 4.20455 0.897734C4.28788 1.04167 4.40152 1.24622 4.54545 1.51136C4.68939 1.77652 4.82197 2.01705 4.94319 2.23295C5.06439 2.44886 5.18181 2.65152 5.29545 2.84092C5.31819 2.87122 5.38447 2.96592 5.49431 3.125C5.60416 3.28409 5.68561 3.41856 5.73864 3.52841C5.79167 3.63825 5.81817 3.74622 5.81817 3.85227C5.81817 4.00378 5.71023 4.19319 5.49431 4.42045C5.27841 4.64773 5.04356 4.85606 4.78978 5.04545C4.53598 5.23484 4.30114 5.43561 4.08523 5.64773C3.86931 5.85984 3.76136 6.03409 3.76136 6.17045C3.76136 6.23864 3.7803 6.32386 3.81819 6.42614C3.85606 6.52841 3.88825 6.60606 3.91477 6.65909C3.94128 6.71213 3.99431 6.80303 4.07386 6.93181C4.15341 7.06061 4.19698 7.13258 4.20455 7.14773C4.7803 8.18561 5.43939 9.07575 6.18181 9.81819C6.92425 10.5606 7.81439 11.2197 8.85228 11.7955C8.86744 11.803 8.93939 11.8466 9.06819 11.9261C9.19697 12.0057 9.28788 12.0587 9.34091 12.0852C9.39394 12.1118 9.47159 12.1439 9.57388 12.1818C9.67614 12.2197 9.76138 12.2386 9.82955 12.2386C9.96591 12.2386 10.1402 12.1307 10.3523 11.9148C10.5644 11.6989 10.7652 11.464 10.9545 11.2102C11.1439 10.9564 11.3523 10.7216 11.5795 10.5057C11.8068 10.2898 11.9962 10.1818 12.1477 10.1818C12.2538 10.1818 12.3617 10.2083 12.4716 10.2614C12.5814 10.3144 12.7159 10.3958 12.875 10.5057C13.0341 10.6155 13.1288 10.6818 13.1591 10.7045C13.3485 10.8182 13.5511 10.9356 13.767 11.0568C13.983 11.178 14.2235 11.3106 14.4886 11.4545C14.7538 11.5985 14.9583 11.7121 15.1023 11.7955C15.6326 12.0606 15.9205 12.2614 15.9659 12.3977C15.9886 12.4508 16 12.5303 16 12.6364Z" fill="black"/>
</svg>
