<svg width="21" height="21" viewBox="0 0 21 21" fill="none" xmlns="http://www.w3.org/2000/svg">
<path d="M20.71 19.2902L17 15.6102C20.1098 11.7327 19.4875 6.06829 15.61 2.95843C11.7325 -0.15143 6.06805 0.4709 2.95819 4.34843C-0.151674 8.22596 0.470656 13.8904 4.34819 17.0002C7.63839 19.639 12.3198 19.639 15.61 17.0002L19.29 20.6802C19.6789 21.0724 20.3121 21.0749 20.7042 20.686C20.7061 20.6841 20.7081 20.6822 20.71 20.6802C21.0846 20.2926 21.0846 19.6778 20.71 19.2902V19.2902ZM9.99999 17.0002C6.134 17.0002 2.99999 13.8662 2.99999 10.0002C2.99999 6.13424 6.134 3.00023 9.99999 3.00023C13.866 3.00023 17 6.13424 17 10.0002C17 13.8662 13.866 17.0002 9.99999 17.0002Z" fill="#121715"/>
</svg>
