<svg width="32" height="32" viewBox="0 0 32 32" fill="none" xmlns="http://www.w3.org/2000/svg">
<path d="M8.27471 15.9634H4.33397V16.8373H8.27471V22.9158H9.70878C9.90404 24.1684 10.939 25.1278 12.1861 25.1278C13.4332 25.1278 14.4682 24.1681 14.6635 22.9158H22.7583C22.9535 24.1684 23.9885 25.1278 25.2356 25.1278C26.4827 25.1278 27.5177 24.1681 27.7132 22.9158H29.1473V14.9576L25.1752 10.7868H21.1313V6.87183H8.27501V10.3634H5.51945V11.2373H8.27501V13.1634H2.85278V14.0373H8.27501V15.9634H8.27471ZM12.1864 24.2539C11.2596 24.2539 10.5052 23.4621 10.5052 22.4887C10.5052 21.5152 11.2593 20.7234 12.1864 20.7234C13.1135 20.7234 13.8676 21.5152 13.8676 22.4887C13.8673 23.4621 13.1132 24.2539 12.1864 24.2539ZM25.2359 24.2539C24.3091 24.2539 23.5547 23.4621 23.5547 22.4887C23.5547 21.5152 24.3088 20.7234 25.2359 20.7234C26.163 20.7234 26.9171 21.5152 26.9171 22.4887C26.9171 23.4621 26.163 24.2539 25.2359 24.2539ZM21.1313 11.6604H24.8306L28.3153 15.3194V22.0419H27.7106C27.5073 20.7993 26.4765 19.8498 25.2359 19.8498C23.9953 19.8498 22.9645 20.7993 22.7615 22.0419H14.6608C14.4575 20.7993 13.427 19.8498 12.1864 19.8498C10.9458 19.8498 9.91501 20.7993 9.71204 22.0419H9.1073V19.4902H21.1316V11.6604H21.1313ZM9.10701 13.1634V11.2373H11.7417V10.3634H9.10701V7.74543H20.299V18.6163H9.10701V16.8373H12.3343V15.9634H9.10701V14.0373H10.5565V13.1634H9.10701Z" fill="#121715"/>
<path d="M27.0134 15.9046L24.273 13.0271H22.446V17.8229H27.0134V15.9046ZM26.1814 16.949H23.2783V13.9007H23.9284L26.1814 16.2664V16.949Z" fill="#121715"/>
</svg>
