<svg width="24" height="24" viewBox="0 0 24 24" fill="none" xmlns="http://www.w3.org/2000/svg">
<path d="M6.20597 11.9725H3.25042V12.6279H6.20597V17.1868H7.28153C7.42797 18.1262 8.20419 18.8458 9.13953 18.8458C10.0749 18.8458 10.8511 18.126 10.9975 17.1868H17.0686C17.2151 18.1262 17.9913 18.8458 18.9266 18.8458C19.862 18.8458 20.6382 18.126 20.7849 17.1868H21.8604V11.2181L18.8813 8.09008H15.8484V5.15381H6.20619V7.77251H4.13953V8.42794H6.20619V9.87251H2.13953V10.5279H6.20619L6.20597 11.9725ZM9.13975 18.1904C8.44464 18.1904 7.87886 17.5965 7.87886 16.8664C7.87886 16.1363 8.44442 15.5425 9.13975 15.5425C9.83508 15.5425 10.4006 16.1363 10.4006 16.8664C10.4004 17.5965 9.83486 18.1904 9.13975 18.1904ZM18.9269 18.1904C18.2317 18.1904 17.666 17.5965 17.666 16.8664C17.666 16.1363 18.2315 15.5425 18.9269 15.5425C19.6222 15.5425 20.1877 16.1363 20.1877 16.8664C20.1877 17.5965 19.6222 18.1904 18.9269 18.1904ZM15.8484 8.74527H18.6229L21.2364 11.4895V16.5314H20.7829C20.6304 15.5994 19.8573 14.8873 18.9269 14.8873C17.9964 14.8873 17.2233 15.5994 17.0711 16.5314H10.9955C10.8431 15.5994 10.0702 14.8873 9.13975 14.8873C8.2093 14.8873 7.43619 15.5994 7.28397 16.5314H6.83042V14.6176H15.8486L15.8484 8.74527ZM6.83019 9.87251V8.42794H8.80619V7.77251H6.83019V5.80901H15.2242V13.9621H6.83019V12.6279H9.25064V11.9725H6.83019V10.5279H7.9173V9.87251H6.83019Z" fill="#121715"/>
<path d="M20.26 11.9286L18.2047 9.77051H16.8345V13.3673H20.26V11.9286ZM19.636 12.7119H17.4587V10.4257H17.9463L19.636 12.2V12.7119Z" fill="#121715"/>
</svg>
