<svg width="16" height="12" viewBox="0 0 16 12" fill="none" xmlns="http://www.w3.org/2000/svg">
<path fill-rule="evenodd" clip-rule="evenodd" d="M-1.66812e-05 0H9.40658V8.11144H-1.66812e-05V0ZM0.615368 0.585362V7.52608H8.79119V0.585362H0.615368Z" fill="#121715" fill-opacity="0.5"/>
<path fill-rule="evenodd" clip-rule="evenodd" d="M10.6375 4.26478H12.7025L14.2419 5.63761V7.19159H10.6375V4.26478ZM11.0771 4.6829V6.77347H13.8024V5.81875L12.5286 4.6829H11.0771Z" fill="#121715" fill-opacity="0.5"/>
<path d="M1.84402 10.6202C1.8167 10.5271 1.80209 10.4289 1.80209 10.3275C1.80209 10.2261 1.81668 10.128 1.84397 10.0349H1.21353C1.1959 10.1299 1.18671 10.2276 1.18671 10.3275C1.18671 10.4273 1.19591 10.5252 1.21356 10.6202H1.84402Z" fill="#121715" fill-opacity="0.5"/>
<path d="M4.70319 10.3275C4.70319 10.2286 4.69418 10.1318 4.6769 10.0377C4.67672 10.0367 4.67655 10.0358 4.67637 10.0349H4.04593C4.07322 10.128 4.08781 10.2261 4.08781 10.3275C4.08781 10.4289 4.0732 10.5271 4.04589 10.6202H4.67634C4.67653 10.6192 4.67671 10.6182 4.6769 10.6172C4.69418 10.5231 4.70319 10.4263 4.70319 10.3275Z" fill="#121715" fill-opacity="0.5"/>
<path fill-rule="evenodd" clip-rule="evenodd" d="M0.615018 10.0349V8.11767H-0.000366211V10.6202H1.21356L1.21446 10.625C1.36204 11.4067 2.08067 11.9999 2.94495 11.9999C3.811 11.9999 4.53081 11.4043 4.67634 10.6202H10.8842C11.0298 11.4043 11.7496 11.9999 12.6156 11.9999C13.4817 11.9999 14.2015 11.4043 14.347 10.6202H15.9996V5.59365L12.7288 2.92689L9.40658 2.91268V3.49804L12.5012 3.51225L15.3842 5.86288V10.0349H14.3471C14.2016 9.25069 13.4817 8.65499 12.6156 8.65499C11.7495 8.65499 11.0297 9.25069 10.8842 10.0349H4.67637C4.53091 9.25069 3.81106 8.65499 2.94495 8.65499C2.08067 8.65499 1.36204 9.24817 1.21446 10.0299L1.21353 10.0349H0.615018ZM1.21353 10.0349H1.84397C1.97829 9.57659 2.42034 9.24036 2.94495 9.24036C3.46956 9.24036 3.91161 9.57659 4.04593 10.0349H4.67637C4.67655 10.0358 4.67672 10.0367 4.6769 10.0377C4.69418 10.1318 4.70319 10.2286 4.70319 10.3275C4.70319 10.4263 4.69418 10.5231 4.6769 10.6172C4.67671 10.6182 4.67653 10.6192 4.67634 10.6202H4.04589C3.91151 11.0784 3.4695 11.4146 2.94495 11.4146C2.4204 11.4146 1.97839 11.0784 1.84402 10.6202H1.21356C1.19591 10.5252 1.18671 10.4273 1.18671 10.3275C1.18671 10.2276 1.1959 10.1299 1.21353 10.0349ZM11.5146 10.0349H10.8842C10.8666 10.1299 10.8574 10.2276 10.8574 10.3275C10.8574 10.4273 10.8666 10.5252 10.8842 10.6202H11.5147C11.6491 11.0784 12.0911 11.4146 12.6156 11.4146C13.1402 11.4146 13.5822 11.0784 13.7166 10.6202C13.7439 10.5271 13.7585 10.4289 13.7585 10.3275C13.7585 10.2261 13.7439 10.128 13.7166 10.0349C13.5823 9.57659 13.1402 9.24036 12.6156 9.24036C12.091 9.24036 11.649 9.57659 11.5146 10.0349Z" fill="#121715" fill-opacity="0.5"/>
<path d="M11.4728 10.3275C11.4728 10.2261 11.4874 10.128 11.5146 10.0349H10.8842C10.8666 10.1299 10.8574 10.2276 10.8574 10.3275C10.8574 10.4273 10.8666 10.5252 10.8842 10.6202H11.5147C11.4874 10.5271 11.4728 10.4289 11.4728 10.3275Z" fill="#121715" fill-opacity="0.5"/>
</svg>
