<svg width="20" height="20" viewBox="0 0 20 20" fill="none" xmlns="http://www.w3.org/2000/svg">
<g clip-path="url(#clip0)">
<path d="M17.0854 2.90641C15.2052 1.03328 12.7053 0.00114284 10.0417 0C4.55298 0 0.0862851 4.44562 0.0840877 9.90993C0.0834481 11.6566 0.541851 13.3616 1.41315 14.8646L0.000488281 20L5.27912 18.622C6.73349 19.4116 8.37101 19.8277 10.0374 19.8284H10.0416H10.0417C15.5295 19.8284 19.9969 15.382 19.9992 9.91796C20.0001 7.2697 18.9652 4.77968 17.0854 2.90641ZM10.0417 18.1546H10.0385C8.55311 18.1538 7.09653 17.7568 5.82605 17.0062L5.52369 16.8278L2.39124 17.6454L3.22756 14.6059L3.03057 14.2942C2.20203 12.9827 1.76464 11.4669 1.76526 9.91057C1.76708 5.36881 5.47963 1.67389 10.0448 1.67389C12.2555 1.6748 14.3333 2.53272 15.896 4.08961C17.4586 5.64649 18.3185 7.71614 18.3179 9.91726C18.3159 14.4592 14.6033 18.1546 10.0417 18.1546Z" fill="#E0E0E0"/>
<path d="M0.458679 19.4302L1.80681 14.5294C0.9751 13.0951 0.53772 11.4678 0.538245 9.80126C0.540426 4.58666 4.80313 0.344238 10.0406 0.344238C12.5827 0.345381 14.9685 1.33032 16.7623 3.11793C18.5566 4.90553 19.5441 7.28165 19.543 9.80865C19.5409 15.0234 15.2779 19.2662 10.041 19.2662C10.0406 19.2662 10.0413 19.2662 10.041 19.2662H10.0368C8.44652 19.2657 6.88393 18.8682 5.49609 18.1152L0.458679 19.4302Z" fill="url(#paint0_linear)"/>
<path fill-rule="evenodd" clip-rule="evenodd" d="M7.58107 5.70325C7.39685 5.29546 7.20289 5.2873 7.02763 5.28017C6.88428 5.27404 6.72016 5.27442 6.55631 5.27442C6.39233 5.27442 6.12586 5.33577 5.90052 5.5808C5.67504 5.82582 5.03961 6.41816 5.03961 7.62286C5.03961 8.82769 5.92101 9.99184 6.04387 10.1554C6.16686 10.3186 7.74531 12.8699 10.2451 13.8514C12.3227 14.667 12.7455 14.5048 13.1964 14.464C13.6474 14.4231 14.6515 13.8718 14.8565 13.2999C15.0615 12.7283 15.0615 12.2382 15 12.1358C14.9385 12.0338 14.7745 11.9725 14.5285 11.8501C14.2825 11.7276 13.0734 11.1352 12.848 11.0535C12.6225 10.9719 12.4585 10.9311 12.2945 11.1763C12.1305 11.4211 11.6595 11.9725 11.516 12.1358C11.3725 12.2994 11.229 12.3198 10.9831 12.1974C10.7371 12.0746 9.94496 11.8163 9.00528 10.9821C8.27415 10.3331 7.78054 9.5316 7.63705 9.28646C7.49357 9.04157 7.62167 8.90892 7.74505 8.78685C7.85548 8.67715 7.99102 8.501 8.11401 8.35802C8.23673 8.21503 8.27773 8.11299 8.35972 7.94973C8.44171 7.78621 8.40071 7.64324 8.33922 7.52079C8.27773 7.39834 7.79975 6.18742 7.58107 5.70325Z" fill="white"/>
<path d="M17.0035 2.87452C15.145 1.02289 12.6737 0.00262401 10.0408 0.00146484C4.61512 0.00146484 0.199741 4.39605 0.19756 9.79763C0.196921 11.5243 0.650056 13.2097 1.51135 14.6954L0.114929 19.7719L5.33293 18.4096C6.7706 19.1902 8.38929 19.6016 10.0366 19.6022H10.0407H10.0408C15.4655 19.6022 19.8816 15.2069 19.8839 9.80553C19.8848 7.18772 18.8618 4.72628 17.0035 2.87452ZM10.0408 17.9477H10.0376C8.5693 17.9469 7.12944 17.5544 5.87356 16.8125L5.57467 16.6361L2.47821 17.4444L3.30491 14.4397L3.11018 14.1316C2.29117 12.8351 1.85879 11.3368 1.85943 9.79828C1.86122 5.30868 5.53112 1.65617 10.0439 1.65617C12.2292 1.65707 14.2831 2.50514 15.8279 4.04416C17.3725 5.58317 18.2225 7.62905 18.2219 9.80493C18.22 14.2946 14.5499 17.9477 10.0408 17.9477Z" fill="white"/>
</g>
<defs>
<linearGradient id="paint0_linear" x1="10.0009" y1="19.4302" x2="10.0009" y2="0.34427" gradientUnits="userSpaceOnUse">
<stop stop-color="#20B038"/>
<stop offset="1" stop-color="#60D66A"/>
</linearGradient>
<clipPath id="clip0">
<rect width="20" height="20" fill="white"/>
</clipPath>
</defs>
</svg>
