<svg width="18" height="18" viewBox="0 0 18 18" fill="none" xmlns="http://www.w3.org/2000/svg">
<path d="M5.04426 14.4115L5.64759 14.764C6.66504 15.3574 7.82225 15.6689 9.00009 15.6665C12.682 15.6665 15.6668 12.6817 15.6668 8.99984C15.6668 5.31794 12.682 2.33317 9.00009 2.33317C5.31819 2.33317 2.33343 5.31794 2.33343 8.99984C2.33343 10.1965 2.64759 11.344 3.23676 12.3532L3.58843 12.9565L3.04426 14.9573L5.04426 14.4115ZM0.670093 17.3332L1.79676 13.1932H1.79676C1.05437 11.9206 0.664343 10.4732 0.666759 8.99984C0.666759 4.39734 4.39759 0.666504 9.00009 0.666504C13.6026 0.666504 17.3334 4.39734 17.3334 8.99984C17.3334 13.6023 13.6026 17.3332 9.00009 17.3332C7.52741 17.3355 6.08064 16.9458 4.80842 16.204L0.670092 17.3332L0.670093 17.3332ZM5.99259 5.08984C6.10426 5.0815 6.21676 5.0815 6.32843 5.0865C6.37343 5.08984 6.41843 5.09484 6.46343 5.09984C6.59593 5.11484 6.74176 5.19567 6.79093 5.30734C7.03926 5.87067 7.28093 6.43817 7.51426 7.00734C7.56593 7.134 7.53509 7.2965 7.43676 7.45484C7.36913 7.5619 7.29598 7.66538 7.21759 7.76484C7.12343 7.88567 6.92093 8.10734 6.92093 8.10734C6.92093 8.10734 6.83843 8.20567 6.87009 8.32817C6.88176 8.37484 6.92009 8.44234 6.95509 8.499L7.00426 8.57817C7.21759 8.934 7.50426 9.29484 7.85426 9.63484C7.95426 9.7315 8.05176 9.83067 8.15676 9.92317C8.54676 10.2673 8.98843 10.5482 9.46509 10.7565L9.46926 10.7582C9.54009 10.789 9.57593 10.8057 9.67926 10.8498C9.73093 10.8715 9.78426 10.8907 9.83843 10.9048C9.9529 10.934 10.0737 10.8912 10.1443 10.7965C10.7476 10.0657 10.8026 10.0182 10.8076 10.0182V10.0198C10.8924 9.94074 11.0072 9.90216 11.1226 9.914C11.1726 9.91734 11.2234 9.9265 11.2701 9.94734C11.7126 10.1498 12.4368 10.4657 12.4368 10.4657L12.9218 10.6832C13.0034 10.7223 13.0776 10.8148 13.0801 10.904C13.0834 10.9598 13.0884 11.0498 13.0693 11.2148C13.0426 11.4307 12.9776 11.6898 12.9126 11.8257C12.8681 11.9184 12.809 12.0033 12.7376 12.0773C12.6535 12.1656 12.5614 12.246 12.4626 12.3173C12.4284 12.3431 12.3937 12.3681 12.3584 12.3923C12.2548 12.4581 12.1483 12.5193 12.0393 12.5757V12.5757C11.8247 12.6896 11.5877 12.7551 11.3451 12.7673C11.1909 12.7757 11.0368 12.7873 10.8818 12.779C10.8751 12.779 10.4084 12.7065 10.4084 12.7065H10.4084C9.22364 12.3949 8.12793 11.811 7.20843 11.0015C7.0201 10.8357 6.84593 10.6573 6.6676 10.4798C5.92593 9.74233 5.36593 8.9465 5.02593 8.19483V8.19483C4.85191 7.82591 4.7579 7.42434 4.75009 7.01651L4.75009 7.01649C4.74666 6.51054 4.91205 6.01788 5.2201 5.61649C5.28093 5.53816 5.33843 5.45649 5.4376 5.36233C5.54343 5.26233 5.6101 5.20899 5.6826 5.17233C5.779 5.12402 5.88415 5.09567 5.99177 5.08899L5.99259 5.08984Z" fill="#121715"/>
</svg>
